<svg width="72" height="72" viewBox="0 0 72 72" fill="none" xmlns="http://www.w3.org/2000/svg">
<path d="M36 59C48.7025 59 59 48.7025 59 36C59 23.2975 48.7025 13 36 13C23.2975 13 13 23.2975 13 36C13 48.7025 23.2975 59 36 59Z" fill="white"/>
<path d="M50.5951 41.64C50.6071 43.1797 50.3113 44.7063 49.7251 46.13C37.2351 49.16 24.2951 46.47 22.2351 46C21.6763 44.6148 21.3943 43.1336 21.4051 41.64H21.5151C21.5151 41.64 36.3151 45.23 50.4051 41.71L50.5951 41.64Z" fill="white"/>
<path d="M49.7251 46.13C47.9351 50.4 43.3751 53.36 36.0351 53.36C28.6251 53.36 24.0051 50.33 22.2351 46C24.2951 46.47 37.235 49.16 49.7251 46.13Z" fill="white"/>
<path d="M36 59C48.7025 59 59 48.7025 59 36C59 23.2975 48.7025 13 36 13C23.2975 13 13 23.2975 13 36C13 48.7025 23.2975 59 36 59Z" stroke="black" stroke-width="2" stroke-linecap="round" stroke-linejoin="round"/>
<path d="M50.5951 41.64C50.6071 43.1797 50.3113 44.7063 49.7251 46.13C37.2351 49.16 24.2951 46.47 22.2351 46C21.6763 44.6148 21.3943 43.1336 21.4051 41.64H21.5151C21.5151 41.64 36.3151 45.23 50.4051 41.71L50.5951 41.64Z" stroke="black" stroke-width="2" stroke-linecap="round" stroke-linejoin="round"/>
<path d="M49.7251 46.13C47.9351 50.4 43.3751 53.36 36.0351 53.36C28.6251 53.36 24.0051 50.33 22.2351 46C24.2951 46.47 37.235 49.16 49.7251 46.13Z" stroke="black" stroke-width="2" stroke-linecap="round" stroke-linejoin="round"/>
<path d="M31.6941 32.4036C31.3229 31.568 30.7172 30.8581 29.9506 30.3598C29.184 29.8615 28.2893 29.5963 27.375 29.5963C26.4607 29.5963 25.566 29.8615 24.7994 30.3598C24.0328 30.8581 23.4271 31.568 23.0559 32.4036" stroke="black" stroke-width="2" stroke-miterlimit="10" stroke-linecap="round"/>
<path d="M48.9441 32.4036C48.5729 31.568 47.9672 30.8581 47.2006 30.3598C46.434 29.8615 45.5393 29.5963 44.625 29.5963C43.7107 29.5963 42.816 29.8615 42.0494 30.3598C41.2828 30.8581 40.6771 31.568 40.3059 32.4036" stroke="black" stroke-width="2" stroke-miterlimit="10" stroke-linecap="round"/>
</svg>
