<svg width="48" height="48" viewBox="0 0 48 48" fill="none" xmlns="http://www.w3.org/2000/svg">
<path d="M24 47C36.7025 47 47 36.7025 47 24C47 11.2975 36.7025 1 24 1C11.2975 1 1 11.2975 1 24C1 36.7025 11.2975 47 24 47Z" fill="white"/>
<path d="M38.5951 29.64C38.6071 31.1797 38.3113 32.7063 37.7251 34.13C25.2351 37.16 12.2951 34.47 10.2351 34C9.67628 32.6148 9.39428 31.1336 9.40508 29.64H9.51508C9.51508 29.64 24.3151 33.23 38.4051 29.71L38.5951 29.64Z" fill="white"/>
<path d="M37.7249 34.13C35.9349 38.4 31.3749 41.36 24.0349 41.36C16.6249 41.36 12.0049 38.33 10.2349 34C12.2949 34.47 25.2348 37.16 37.7249 34.13Z" fill="white"/>
<path d="M24 47C36.7025 47 47 36.7025 47 24C47 11.2975 36.7025 1 24 1C11.2975 1 1 11.2975 1 24C1 36.7025 11.2975 47 24 47Z" stroke="black" stroke-width="2" stroke-linecap="round" stroke-linejoin="round"/>
<path d="M38.5951 29.64C38.6071 31.1797 38.3113 32.7063 37.7251 34.13C25.2351 37.16 12.2951 34.47 10.2351 34C9.67628 32.6148 9.39428 31.1336 9.40508 29.64H9.51508C9.51508 29.64 24.3151 33.23 38.4051 29.71L38.5951 29.64Z" stroke="black" stroke-width="2" stroke-linecap="round" stroke-linejoin="round"/>
<path d="M37.7249 34.13C35.9349 38.4 31.3749 41.36 24.0349 41.36C16.6249 41.36 12.0049 38.33 10.2349 34C12.2949 34.47 25.2348 37.16 37.7249 34.13Z" stroke="black" stroke-width="2" stroke-linecap="round" stroke-linejoin="round"/>
<path d="M19.6939 20.4036C19.3227 19.568 18.717 18.8581 17.9504 18.3598C17.1838 17.8615 16.2891 17.5963 15.3748 17.5963C14.4605 17.5963 13.5658 17.8615 12.7992 18.3598C12.0326 18.8581 11.4269 19.568 11.0557 20.4036" stroke="black" stroke-width="2" stroke-miterlimit="10" stroke-linecap="round"/>
<path d="M36.9439 20.4036C36.5727 19.568 35.967 18.8581 35.2004 18.3598C34.4338 17.8615 33.5391 17.5963 32.6248 17.5963C31.7105 17.5963 30.8158 17.8615 30.0492 18.3598C29.2826 18.8581 28.6769 19.568 28.3057 20.4036" stroke="black" stroke-width="2" stroke-miterlimit="10" stroke-linecap="round"/>
</svg>
